<?xml version="1.0" encoding="utf-8"?>
<!-- Generator: Adobe Illustrator 24.3.0, SVG Export Plug-In . SVG Version: 6.00 Build 0)  -->
<svg version="1.1" id="图层_1" xmlns="http://www.w3.org/2000/svg" xmlns:xlink="http://www.w3.org/1999/xlink" x="0px" y="0px"
	 viewBox="0 0 180 44" style="enable-background:new 0 0 180 44;" xml:space="preserve">
<style type="text/css">
	.st0{fill:#FFFFFF;}
	.st1{fill:#F24A00;}
</style>
<g>
	<path class="st0" d="M20,16.5c2.6,0,4.9,1,6.6,2.6h5c-2.4-3.9-6.7-6.5-11.6-6.5c-7.5,0-13.6,6.1-13.6,13.6
		c0,7.5,6.1,13.6,13.6,13.6c4.9,0,9.2-2.6,11.6-6.5h-5c-1.7,1.6-4.1,2.6-6.6,2.6c-5.4,0-9.7-4.4-9.7-9.7S14.7,16.5,20,16.5z"/>
	<path class="st0" d="M51.8,21.3c-1.8-1.4-4-2.3-6.5-2.3c-5.7,0-10.4,4.7-10.4,10.4c0,5.7,4.7,10.4,10.4,10.4c1.9,0,3.7-0.5,5.2-1.4
		v-5.1c-1.2,1.6-3.1,2.6-5.2,2.6c-3.6,0-6.5-2.9-6.5-6.5c0-3.6,2.9-6.5,6.5-6.5c3.6,0,6.5,2.9,6.5,6.5h0v5.2l0,0h3.9V19.1h-3.9V21.3
		z"/>
	<rect x="51.8" y="35.9" class="st1" width="3.9" height="3.9"/>
	<rect x="59.6" y="19.1" class="st0" width="3.9" height="20.8"/>
	<rect x="97.3" y="17.8" class="st0" width="3.9" height="22.1"/>
	<path class="st0" d="M79.1,19.1L79.1,19.1c-2.3,0-4.4,1-5.8,2.6c-1.4-1.6-3.5-2.6-5.8-2.6h0c-0.9,0-1.8,0.2-2.6,0.4V24
		c0.7-0.6,1.6-1,2.6-1c2.1,0,3.9,1.7,3.9,3.9v13h3.9v-13c0-2.1,1.7-3.9,3.9-3.9c2.1,0,3.9,1.7,3.9,3.9v13h3.9v-13
		C86.9,22.6,83.4,19.1,79.1,19.1z"/>
	<rect x="136.3" y="19.1" class="st0" width="3.9" height="20.8"/>
	<rect x="128.5" y="19.1" class="st0" width="3.9" height="20.8"/>
	<path class="st0" d="M144.1,19.1L144.1,19.1c-0.9,0-1.8,0.2-2.6,0.4V24c0.7-0.6,1.6-1,2.6-1c2.1,0,3.9,1.7,3.9,3.9v13h3.9v-13
		C151.9,22.6,148.4,19.1,144.1,19.1z"/>
	<rect x="155.8" y="12.6" class="st0" width="3.9" height="27.3"/>
	<path class="st0" d="M116.8,19.1L116.8,19.1c-0.9,0-1.8,0.2-2.6,0.4V24c0.7-0.6,1.6-1,2.6-1c2.1,0,3.9,1.7,3.9,3.9v13h3.9v-13
		C124.6,22.6,121.1,19.1,116.8,19.1z"/>
	<polygon class="st0" points="90.8,12.6 90.8,16.5 109,16.5 109,39.8 112.9,39.8 112.9,16.5 112.9,16.5 112.9,12.6 112.9,12.6 	"/>
	<polygon class="st0" points="163.1,29.4 172.8,19.1 167.4,19.1 160.9,26 160.9,32.7 168.1,39.8 173.6,39.8 	"/>
	<rect x="127.1" y="13.1" transform="matrix(0.7071 -0.7071 0.7071 0.7071 27.195 95.6667)" class="st1" width="3.9" height="3.9"/>
	<rect x="131.9" y="8.8" transform="matrix(0.866 -0.5 0.5 0.866 12.6766 68.2127)" class="st1" width="3.4" height="3.4"/>
	<rect x="127.6" y="4.5" transform="matrix(0.9659 -0.2588 0.2588 0.9659 2.8698 33.6086)" class="st1" width="2.9" height="2.9"/>
</g>
</svg>
